<mxfile host="Electron" modified="2024-04-08T06:39:40.240Z" agent="Mozilla/5.0 (Windows NT 10.0; Win64; x64) AppleWebKit/537.36 (KHTML, like Gecko) draw.io/22.1.11 Chrome/114.0.5735.289 Electron/25.9.8 Safari/537.36" etag="gwr_V2KXRRKIXsxEzZ4Q" version="22.1.11" type="device">
  <diagram name="第 1 页" id="sWJ8H5_wiLqfrzY8cHus">
    <mxGraphModel dx="1098" dy="828" grid="1" gridSize="10" guides="1" tooltips="1" connect="1" arrows="1" fold="1" page="1" pageScale="1" pageWidth="827" pageHeight="1169" math="0" shadow="0">
      <root>
        <mxCell id="0" />
        <mxCell id="1" parent="0" />
        <mxCell id="k09RIAD4cNtnLnTwXeMQ-2" value="输入装配" style="rounded=1;whiteSpace=wrap;html=1;" vertex="1" parent="1">
          <mxGeometry x="160" y="160" width="120" height="60" as="geometry" />
        </mxCell>
        <mxCell id="k09RIAD4cNtnLnTwXeMQ-4" value="顶点着色器" style="rounded=1;whiteSpace=wrap;html=1;" vertex="1" parent="1">
          <mxGeometry x="160" y="280" width="120" height="60" as="geometry" />
        </mxCell>
        <mxCell id="k09RIAD4cNtnLnTwXeMQ-5" value="壳着色器" style="rounded=1;whiteSpace=wrap;html=1;" vertex="1" parent="1">
          <mxGeometry x="160" y="400" width="120" height="60" as="geometry" />
        </mxCell>
        <mxCell id="k09RIAD4cNtnLnTwXeMQ-7" value="曲面细分" style="rounded=1;whiteSpace=wrap;html=1;" vertex="1" parent="1">
          <mxGeometry x="160" y="520" width="120" height="60" as="geometry" />
        </mxCell>
        <mxCell id="k09RIAD4cNtnLnTwXeMQ-9" value="域着色器" style="rounded=1;whiteSpace=wrap;html=1;" vertex="1" parent="1">
          <mxGeometry x="160" y="640" width="120" height="60" as="geometry" />
        </mxCell>
        <mxCell id="k09RIAD4cNtnLnTwXeMQ-11" value="几何着色器" style="rounded=1;whiteSpace=wrap;html=1;" vertex="1" parent="1">
          <mxGeometry x="160" y="760" width="120" height="60" as="geometry" />
        </mxCell>
        <mxCell id="k09RIAD4cNtnLnTwXeMQ-12" value="流输出" style="rounded=1;whiteSpace=wrap;html=1;" vertex="1" parent="1">
          <mxGeometry x="440" y="200" width="120" height="60" as="geometry" />
        </mxCell>
        <mxCell id="k09RIAD4cNtnLnTwXeMQ-13" value="光栅化" style="rounded=1;whiteSpace=wrap;html=1;" vertex="1" parent="1">
          <mxGeometry x="440" y="320" width="120" height="60" as="geometry" />
        </mxCell>
        <mxCell id="k09RIAD4cNtnLnTwXeMQ-14" value="像素着色器" style="rounded=1;whiteSpace=wrap;html=1;" vertex="1" parent="1">
          <mxGeometry x="440" y="440" width="120" height="60" as="geometry" />
        </mxCell>
        <mxCell id="k09RIAD4cNtnLnTwXeMQ-15" value="输出混合" style="rounded=1;whiteSpace=wrap;html=1;" vertex="1" parent="1">
          <mxGeometry x="440" y="560" width="120" height="60" as="geometry" />
        </mxCell>
        <mxCell id="k09RIAD4cNtnLnTwXeMQ-16" value="帧缓冲" style="rounded=1;whiteSpace=wrap;html=1;" vertex="1" parent="1">
          <mxGeometry x="440" y="680" width="120" height="60" as="geometry" />
        </mxCell>
        <mxCell id="k09RIAD4cNtnLnTwXeMQ-17" style="rounded=0;orthogonalLoop=1;jettySize=auto;html=1;" edge="1" parent="1" source="k09RIAD4cNtnLnTwXeMQ-18" target="k09RIAD4cNtnLnTwXeMQ-16">
          <mxGeometry relative="1" as="geometry" />
        </mxCell>
        <mxCell id="k09RIAD4cNtnLnTwXeMQ-18" value="深度缓冲" style="rounded=1;whiteSpace=wrap;html=1;" vertex="1" parent="1">
          <mxGeometry x="640" y="695" width="90" height="30" as="geometry" />
        </mxCell>
        <mxCell id="k09RIAD4cNtnLnTwXeMQ-19" style="edgeStyle=orthogonalEdgeStyle;rounded=0;orthogonalLoop=1;jettySize=auto;html=1;" edge="1" parent="1" source="k09RIAD4cNtnLnTwXeMQ-20" target="k09RIAD4cNtnLnTwXeMQ-16">
          <mxGeometry relative="1" as="geometry" />
        </mxCell>
        <mxCell id="k09RIAD4cNtnLnTwXeMQ-20" value="颜色缓冲" style="rounded=1;whiteSpace=wrap;html=1;" vertex="1" parent="1">
          <mxGeometry x="640" y="650" width="90" height="30" as="geometry" />
        </mxCell>
        <mxCell id="k09RIAD4cNtnLnTwXeMQ-21" style="edgeStyle=orthogonalEdgeStyle;rounded=0;orthogonalLoop=1;jettySize=auto;html=1;" edge="1" parent="1" source="k09RIAD4cNtnLnTwXeMQ-22" target="k09RIAD4cNtnLnTwXeMQ-16">
          <mxGeometry relative="1" as="geometry" />
        </mxCell>
        <mxCell id="k09RIAD4cNtnLnTwXeMQ-22" value="模板缓冲" style="rounded=1;whiteSpace=wrap;html=1;" vertex="1" parent="1">
          <mxGeometry x="640" y="740" width="90" height="30" as="geometry" />
        </mxCell>
        <mxCell id="k09RIAD4cNtnLnTwXeMQ-23" style="edgeStyle=orthogonalEdgeStyle;rounded=0;orthogonalLoop=1;jettySize=auto;html=1;" edge="1" parent="1" source="k09RIAD4cNtnLnTwXeMQ-24">
          <mxGeometry relative="1" as="geometry">
            <mxPoint x="160" y="175" as="targetPoint" />
          </mxGeometry>
        </mxCell>
        <mxCell id="k09RIAD4cNtnLnTwXeMQ-24" value="索引缓冲" style="rounded=1;whiteSpace=wrap;html=1;" vertex="1" parent="1">
          <mxGeometry y="150" width="90" height="30" as="geometry" />
        </mxCell>
        <mxCell id="k09RIAD4cNtnLnTwXeMQ-25" style="edgeStyle=orthogonalEdgeStyle;rounded=0;orthogonalLoop=1;jettySize=auto;html=1;entryX=0;entryY=0.75;entryDx=0;entryDy=0;" edge="1" parent="1" source="k09RIAD4cNtnLnTwXeMQ-26" target="k09RIAD4cNtnLnTwXeMQ-2">
          <mxGeometry relative="1" as="geometry" />
        </mxCell>
        <mxCell id="k09RIAD4cNtnLnTwXeMQ-26" value="顶点缓冲" style="rounded=1;whiteSpace=wrap;html=1;" vertex="1" parent="1">
          <mxGeometry y="200" width="90" height="30" as="geometry" />
        </mxCell>
        <mxCell id="k09RIAD4cNtnLnTwXeMQ-27" value="" style="html=1;shadow=0;dashed=0;align=center;verticalAlign=middle;shape=mxgraph.arrows2.arrow;dy=0.6;dx=40;direction=south;notch=0;" vertex="1" parent="1">
          <mxGeometry x="202.5" y="220" width="35" height="60" as="geometry" />
        </mxCell>
        <mxCell id="k09RIAD4cNtnLnTwXeMQ-28" value="" style="html=1;shadow=0;dashed=0;align=center;verticalAlign=middle;shape=mxgraph.arrows2.arrow;dy=0.6;dx=40;direction=south;notch=0;" vertex="1" parent="1">
          <mxGeometry x="202.5" y="340" width="35" height="60" as="geometry" />
        </mxCell>
        <mxCell id="k09RIAD4cNtnLnTwXeMQ-29" value="" style="html=1;shadow=0;dashed=0;align=center;verticalAlign=middle;shape=mxgraph.arrows2.arrow;dy=0.6;dx=40;direction=south;notch=0;" vertex="1" parent="1">
          <mxGeometry x="202.5" y="460" width="35" height="60" as="geometry" />
        </mxCell>
        <mxCell id="k09RIAD4cNtnLnTwXeMQ-30" value="" style="html=1;shadow=0;dashed=0;align=center;verticalAlign=middle;shape=mxgraph.arrows2.arrow;dy=0.6;dx=40;direction=south;notch=0;" vertex="1" parent="1">
          <mxGeometry x="202.5" y="580" width="35" height="60" as="geometry" />
        </mxCell>
        <mxCell id="k09RIAD4cNtnLnTwXeMQ-31" value="" style="html=1;shadow=0;dashed=0;align=center;verticalAlign=middle;shape=mxgraph.arrows2.arrow;dy=0.6;dx=40;direction=south;notch=0;" vertex="1" parent="1">
          <mxGeometry x="202.5" y="700" width="35" height="60" as="geometry" />
        </mxCell>
        <mxCell id="k09RIAD4cNtnLnTwXeMQ-32" value="" style="html=1;shadow=0;dashed=0;align=center;verticalAlign=middle;shape=mxgraph.arrows2.arrow;dy=0.6;dx=40;direction=south;notch=0;" vertex="1" parent="1">
          <mxGeometry x="482.5" y="260" width="35" height="60" as="geometry" />
        </mxCell>
        <mxCell id="k09RIAD4cNtnLnTwXeMQ-33" value="" style="html=1;shadow=0;dashed=0;align=center;verticalAlign=middle;shape=mxgraph.arrows2.arrow;dy=0.6;dx=40;direction=south;notch=0;" vertex="1" parent="1">
          <mxGeometry x="482.5" y="380" width="35" height="60" as="geometry" />
        </mxCell>
        <mxCell id="k09RIAD4cNtnLnTwXeMQ-34" value="" style="html=1;shadow=0;dashed=0;align=center;verticalAlign=middle;shape=mxgraph.arrows2.arrow;dy=0.6;dx=40;direction=south;notch=0;" vertex="1" parent="1">
          <mxGeometry x="482.5" y="500" width="35" height="60" as="geometry" />
        </mxCell>
        <mxCell id="k09RIAD4cNtnLnTwXeMQ-35" value="" style="html=1;shadow=0;dashed=0;align=center;verticalAlign=middle;shape=mxgraph.arrows2.arrow;dy=0.6;dx=40;direction=south;notch=0;" vertex="1" parent="1">
          <mxGeometry x="482.5" y="620" width="35" height="60" as="geometry" />
        </mxCell>
        <mxCell id="k09RIAD4cNtnLnTwXeMQ-36" style="edgeStyle=orthogonalEdgeStyle;rounded=0;orthogonalLoop=1;jettySize=auto;html=1;exitX=1;exitY=0.5;exitDx=0;exitDy=0;exitPerimeter=0;entryX=0;entryY=0.5;entryDx=0;entryDy=0;entryPerimeter=0;dashed=1;endArrow=blockThin;endFill=1;" edge="1" parent="1" source="k09RIAD4cNtnLnTwXeMQ-37" target="k09RIAD4cNtnLnTwXeMQ-38">
          <mxGeometry relative="1" as="geometry">
            <mxPoint x="400" y="120" as="targetPoint" />
            <Array as="points">
              <mxPoint x="220" y="900" />
              <mxPoint x="400" y="900" />
              <mxPoint x="400" y="120" />
              <mxPoint x="500" y="120" />
            </Array>
          </mxGeometry>
        </mxCell>
        <mxCell id="k09RIAD4cNtnLnTwXeMQ-37" value="" style="html=1;shadow=0;dashed=0;align=center;verticalAlign=middle;shape=mxgraph.arrows2.arrow;dy=0.6;dx=40;direction=south;notch=0;" vertex="1" parent="1">
          <mxGeometry x="202.5" y="820" width="35" height="60" as="geometry" />
        </mxCell>
        <mxCell id="k09RIAD4cNtnLnTwXeMQ-38" value="" style="html=1;shadow=0;dashed=0;align=center;verticalAlign=middle;shape=mxgraph.arrows2.arrow;dy=0.6;dx=40;direction=south;notch=0;" vertex="1" parent="1">
          <mxGeometry x="482.5" y="140" width="35" height="60" as="geometry" />
        </mxCell>
        <mxCell id="k09RIAD4cNtnLnTwXeMQ-40" style="edgeStyle=orthogonalEdgeStyle;rounded=0;orthogonalLoop=1;jettySize=auto;html=1;entryX=0;entryY=0.633;entryDx=0;entryDy=0;entryPerimeter=0;endArrow=blockThin;endFill=1;" edge="1" parent="1" source="k09RIAD4cNtnLnTwXeMQ-5" target="k09RIAD4cNtnLnTwXeMQ-9">
          <mxGeometry relative="1" as="geometry">
            <Array as="points">
              <mxPoint x="80" y="430" />
              <mxPoint x="80" y="678" />
            </Array>
          </mxGeometry>
        </mxCell>
      </root>
    </mxGraphModel>
  </diagram>
</mxfile>
